<svg id="Layer_1" data-name="Layer 1" xmlns="http://www.w3.org/2000/svg" xmlns:xlink="http://www.w3.org/1999/xlink" viewBox="0 0 501 501"><defs><style>.cls-1{fill:url(#linear-gradient);}.cls-2{fill:#f9fbfc;}</style><linearGradient id="linear-gradient" x1="250.5" y1="0.5" x2="250.5" y2="500.5" gradientUnits="userSpaceOnUse"><stop offset="0" stop-color="#3878bd"/><stop offset="1" stop-color="#2f51a0"/></linearGradient></defs><rect class="cls-1" x="0.5" y="0.5" width="500" height="500" rx="60"/><image width="412" height="412" transform="translate(0.5 0.5) scale(1.21)" xlink:href="inspiration-geometry.png"/><path class="cls-2" d="M98.44,156.77A153.08,153.08,0,0,1,159,93.18Q198.4,70.51,251.75,70.5q45.87,0,82,17.2a151.93,151.93,0,0,1,58.84,48.61q22.67,31.41,30.14,73.31H306.11q-8-17.44-22.71-27.19t-33.63-9.72q-27.95,0-44.13,20.94T189.43,250q0,35.4,16.21,56.34t44.13,20.94q18.93,0,33.63-9.72t22.71-27.19H422.76q-7.45,41.88-30.14,73.31a151.93,151.93,0,0,1-58.84,48.61q-36.15,17.19-82,17.2-53.34,0-92.73-22.68a153,153,0,0,1-60.58-63.59Q77.23,302.37,77.24,250T98.44,156.77Z" transform="translate(0.5 0.5)"/></svg>